<svg xmlns="http://www.w3.org/2000/svg" width="1280" height="360" viewBox="0 0 1280 360" role="img" aria-labelledby="title desc">
  <title id="title">한라시스템솔루션즈</title>
  <desc id="desc">System Engineering and AX Solutions</desc>
  <defs>
    <linearGradient id="navy" x1="0" y1="0" x2="1" y2="1">
      <stop offset="0" stop-color="#061b3e"/>
      <stop offset="1" stop-color="#07366f"/>
    </linearGradient>
    <linearGradient id="blue" x1="0" y1="0" x2="1" y2="1">
      <stop offset="0" stop-color="#1681ef"/>
      <stop offset="1" stop-color="#0864d7"/>
    </linearGradient>
  </defs>

  <rect width="1280" height="360" fill="url(#navy)"/>
  <path d="M1010 0h270v152L1116 244V92z" fill="#0b4287" opacity=".45"/>
  <path d="M1125 360h155V191l-155 89z" fill="url(#blue)" opacity=".75"/>
  <path d="M905 360h173V260l-173 100z" fill="#0b4287" opacity=".35"/>

  <g transform="translate(86 96)">
    <path d="M0 32 57 0v74L0 107z" fill="#ffffff"/>
    <path d="M0 119 57 86v74L0 193z" fill="#ffffff"/>
    <path d="m69 72 91-52v74l-91 53z" fill="url(#blue)"/>
    <path d="m103 155 57-33v74l-57 33z" fill="url(#blue)"/>
  </g>

  <g fill="#ffffff" font-family="Pretendard, Apple SD Gothic Neo, Noto Sans KR, sans-serif">
    <text x="300" y="151" font-size="46" font-weight="800" letter-spacing="-2">한라시스템솔루션즈</text>
    <text x="302" y="196" font-size="18" font-weight="600" letter-spacing="7">HALLA SYSTEM SOLUTIONS</text>
  </g>

  <rect x="302" y="239" width="58" height="4" rx="2" fill="#1681ef"/>
  <text x="380" y="247" fill="#b9cbe3" font-family="Inter, Arial, sans-serif" font-size="17" font-weight="600" letter-spacing="3">SYSTEM ENGINEERING · AX SOLUTIONS</text>
</svg>
